<svg width="24" height="24" viewBox="0 0 24 24" fill="none" xmlns="http://www.w3.org/2000/svg">
<g clip-path="url(#clip0_1_146)">
<path fill-rule="evenodd" clip-rule="evenodd" d="M5.59392 0.602905H17.928C18.6576 0.602905 19.2451 0.602905 19.7222 0.639385C20.2128 0.677785 20.6458 0.756505 21.0499 0.946585C21.8058 1.30325 22.414 1.9118 22.7702 2.66787C22.9613 3.07107 23.04 3.50403 23.0774 3.99555C23.1149 4.47267 23.1149 5.06114 23.1149 5.78978V5.84739C23.1149 6.57699 23.1149 7.16451 23.0784 7.64259C23.04 8.13219 22.9613 8.56515 22.7712 8.96931C22.4147 9.72553 21.8061 10.3341 21.0499 10.6906C20.6458 10.8807 20.2128 10.9594 19.7222 10.9978C19.2451 11.0343 18.6566 11.0343 17.927 11.0343H5.59488C4.86528 11.0343 4.27776 11.0343 3.79968 10.9978C3.31008 10.9594 2.87616 10.8807 2.47296 10.6906C1.71638 10.3343 1.10745 9.72569 0.750723 8.96931C0.559683 8.56611 0.480003 8.13314 0.443523 7.64162C0.407043 7.16451 0.407043 6.57603 0.407043 5.84739V5.78978C0.407043 5.06018 0.407043 4.47266 0.443523 3.99459C0.480963 3.50499 0.559683 3.07203 0.750723 2.66787C1.10721 1.91164 1.71578 1.30307 2.472 0.946585C2.8752 0.756505 3.30816 0.677785 3.79968 0.639385C4.2768 0.602905 4.86528 0.602905 5.59392 0.602905ZM19.7357 5.81858C19.7357 7.05986 18.6778 8.0669 17.3731 8.0669C16.0675 8.0669 15.0096 7.05986 15.0096 5.81858C15.0096 4.5773 16.0675 3.57123 17.3731 3.57123C18.6787 3.57123 19.7357 4.5773 19.7357 5.81858ZM19.7357 18.1815C19.7357 19.4227 18.6778 20.4288 17.3731 20.4288C16.0675 20.4288 15.0096 19.4227 15.0096 18.1824C15.0096 16.9402 16.0675 15.9341 17.3731 15.9341C18.6787 15.9341 19.7357 16.9402 19.7357 18.1815ZM5.62272 12.9658H5.59392C4.86432 12.9658 4.2768 12.9658 3.79872 13.0023C3.30912 13.0407 2.8752 13.1194 2.472 13.3095C1.71578 13.666 1.10721 14.2745 0.750723 15.0307C0.559683 15.4339 0.480963 15.8669 0.443523 16.3584C0.407043 16.8355 0.407043 17.424 0.407043 18.1536V18.2103C0.407043 18.9399 0.407043 19.5274 0.443523 20.0055C0.480963 20.4951 0.559683 20.928 0.750723 21.3322C1.10721 22.0884 1.71578 22.697 2.472 23.0535C2.8752 23.2435 3.30816 23.3223 3.79968 23.3607C4.2768 23.3971 4.86528 23.3971 5.59392 23.3971H17.928C18.6576 23.3971 19.2451 23.3971 19.7222 23.3607C20.2128 23.3223 20.6458 23.2435 21.0499 23.0535C21.8058 22.6968 22.414 22.0882 22.7702 21.3322C22.9613 20.929 23.04 20.496 23.0774 20.0045C23.1149 19.5274 23.1149 18.9389 23.1149 18.2103V18.1527C23.1149 17.4231 23.1149 16.8355 23.0784 16.3575C23.04 15.8679 22.9613 15.4349 22.7712 15.0307C22.4147 14.2745 21.8061 13.666 21.0499 13.3095C20.6458 13.1194 20.2128 13.0407 19.7222 13.0023C19.2451 12.9658 18.6566 12.9658 17.927 12.9658H5.62368H5.62272Z" fill="#FFC670"/>
</g>
<defs>
<clipPath id="clip0_1_146">
<rect width="24" height="24" fill="white"/>
</clipPath>
</defs>
</svg>
