<svg width="14" height="13" viewBox="0 0 14 13" fill="none" xmlns="http://www.w3.org/2000/svg">
<path d="M3.34192 13C5.35792 13 6.00592 11.74 6.00592 10.228V8.734H7.98592V10.228C7.98592 11.74 8.63392 13 10.6499 13C12.3239 13 13.4039 11.938 13.4039 10.282C13.4039 8.536 12.3599 7.51 10.3079 7.51H9.24592V5.53H10.3079C12.3599 5.53 13.4039 4.504 13.4039 2.758C13.4039 1.102 12.3239 0.0399995 10.6499 0.0399995C8.63392 0.0399995 7.98592 1.3 7.98592 2.812V4.306H6.00592V2.812C6.00592 1.3 5.35792 0.0399995 3.34192 0.0399995C1.66792 0.0399995 0.587922 1.102 0.587922 2.758C0.587922 4.504 1.63192 5.53 3.68392 5.53H4.74592V7.51H3.68392C1.63192 7.51 0.587922 8.536 0.587922 10.282C0.587922 11.938 1.66792 13 3.34192 13ZM9.24592 2.776C9.24592 1.858 9.71392 1.282 10.6499 1.282C11.4959 1.282 12.1259 1.696 12.1259 2.758C12.1259 3.784 11.5859 4.306 10.3079 4.306H9.24592V2.776ZM3.68392 4.306C2.40592 4.306 1.86592 3.784 1.86592 2.758C1.86592 1.696 2.49592 1.282 3.34192 1.282C4.27792 1.282 4.74592 1.858 4.74592 2.776V4.306H3.68392ZM6.00592 7.51V5.53H7.98592V7.51H6.00592ZM3.34192 11.758C2.49592 11.758 1.86592 11.344 1.86592 10.282C1.86592 9.256 2.40592 8.734 3.68392 8.734H4.74592V10.264C4.74592 11.182 4.27792 11.758 3.34192 11.758ZM9.24592 10.264V8.734H10.3079C11.5859 8.734 12.1259 9.256 12.1259 10.282C12.1259 11.344 11.4959 11.758 10.6499 11.758C9.71392 11.758 9.24592 11.182 9.24592 10.264Z" fill="#262E35"/>
</svg>
