<svg width="24" height="24" viewBox="0 0 24 24" fill="none" xmlns="http://www.w3.org/2000/svg">
<path d="M1.33299 6.667C1.33299 5.194 2.52699 4 3.99999 4H20C21.473 4 22.667 5.194 22.667 6.667V17.333C22.667 18.806 21.473 20 20 20H3.99999C2.52699 20 1.33299 18.806 1.33299 17.333V6.667ZM19.237 6H4.76299L12 12.032L19.237 6ZM3.33299 7.412V17.332C3.33299 17.7 3.63199 17.999 3.99999 17.999H20C20.368 17.999 20.667 17.7 20.667 17.332V7.413C20.658 7.421 20.649 7.429 20.64 7.436L12 14.635L3.35999 7.435C3.35099 7.427 3.34199 7.42 3.33299 7.412Z" fill="#5E7182"/>
</svg>
