<svg width="28" height="28" viewBox="0 0 28 28" fill="none" xmlns="http://www.w3.org/2000/svg">
<path fill-rule="evenodd" clip-rule="evenodd" d="M7.00002 4.66669C5.71136 4.66669 4.66669 5.71136 4.66669 7.00002V24.5C4.66669 25.7887 5.71136 26.8334 7.00002 26.8334H21C22.2887 26.8334 23.3334 25.7887 23.3334 24.5V7.00002C23.3334 5.71136 22.2887 4.66669 21 4.66669H7.00002ZM8.16669 7.00002C7.52236 7.00002 7.00002 7.52236 7.00002 8.16669V11.6667C7.00002 12.311 7.52236 12.8334 8.16669 12.8334H19.8334C20.4777 12.8334 21 12.311 21 11.6667V8.16669C21 7.52236 20.4777 7.00002 19.8334 7.00002H8.16669ZM7.00002 16.3334C7.00002 15.689 7.52236 15.1667 8.16669 15.1667H9.33335C9.97768 15.1667 10.5 15.689 10.5 16.3334V17.5C10.5 18.1444 9.97768 18.6667 9.33335 18.6667H8.16669C7.52236 18.6667 7.00002 18.1444 7.00002 17.5V16.3334ZM8.16669 21C7.52236 21 7.00002 21.5223 7.00002 22.1667V23.3334C7.00002 23.9777 7.52236 24.5 8.16669 24.5H9.33335C9.97768 24.5 10.5 23.9777 10.5 23.3334V22.1667C10.5 21.5223 9.97768 21 9.33335 21H8.16669ZM12.25 16.3334C12.25 15.689 12.7723 15.1667 13.4167 15.1667H14.5834C15.2277 15.1667 15.75 15.689 15.75 16.3334V17.5C15.75 18.1444 15.2277 18.6667 14.5834 18.6667H13.4167C12.7723 18.6667 12.25 18.1444 12.25 17.5V16.3334ZM13.4167 21C12.7723 21 12.25 21.5223 12.25 22.1667V23.3334C12.25 23.9777 12.7723 24.5 13.4167 24.5H14.5834C15.2277 24.5 15.75 23.9777 15.75 23.3334V22.1667C15.75 21.5223 15.2277 21 14.5834 21H13.4167ZM17.5 16.3334C17.5 15.689 18.0223 15.1667 18.6667 15.1667H19.8334C20.4777 15.1667 21 15.689 21 16.3334V17.5C21 18.1444 20.4777 18.6667 19.8334 18.6667H18.6667C18.0223 18.6667 17.5 18.1444 17.5 17.5V16.3334ZM18.6667 21C18.0223 21 17.5 21.5223 17.5 22.1667V23.3334C17.5 23.9777 18.0223 24.5 18.6667 24.5H19.8334C20.4777 24.5 21 23.9777 21 23.3334V22.1667C21 21.5223 20.4777 21 19.8334 21H18.6667Z" fill="#95DAD5"/>
<path opacity="0.5" d="M7 2.33335C7 1.68903 7.52234 1.16669 8.16667 1.16669H19.8333C20.4777 1.16669 21 1.68903 21 2.33335V4.66669H7V2.33335Z" fill="#95DAD5"/>
</svg>
