<svg width="14" height="14" viewBox="0 0 14 14" fill="none" xmlns="http://www.w3.org/2000/svg">
<path fill-rule="evenodd" clip-rule="evenodd" d="M14 7L7 0L0 7L7 14L14 7ZM9 9C8.73932 9.27139 8.42712 9.48804 8.08168 9.63727C7.73624 9.78651 7.36449 9.86533 6.98821 9.86911C6.61193 9.8729 6.23867 9.80158 5.8903 9.65932C5.54192 9.51707 5.22542 9.30675 4.95934 9.04066C4.69325 8.77458 4.48293 8.45808 4.34068 8.1097C4.19842 7.76133 4.1271 7.38807 4.13089 7.01179C4.13467 6.63551 4.21349 6.26376 4.36273 5.91832C4.51196 5.57288 4.72861 5.26068 5 5C5.534 4.48707 6.24781 4.20395 6.98821 4.2114C7.72861 4.21885 8.43658 4.51628 8.96015 5.03985C9.48372 5.56342 9.78115 6.27139 9.7886 7.01179C9.79605 7.75219 9.51293 8.466 9 9Z" fill="#A0AEBA"/>
</svg>
