<svg width="123" height="40" viewBox="0 0 123 40" fill="none" xmlns="http://www.w3.org/2000/svg">
<g clip-path="url(#clip0_1076_24)">
<path d="M74.0583 25.6024C73.9254 25.6024 73.8172 25.4938 73.8172 25.3605V20.0074C73.8172 17.8247 72.7471 16.521 70.9562 16.521C69.1654 16.521 68.0706 17.8247 68.0706 20.0074V25.3605C68.0706 25.4938 67.9624 25.6024 67.8296 25.6024H65.6992C65.5664 25.6024 65.4581 25.4938 65.4581 25.3605V19.7802C65.4581 16.558 67.8739 14.0345 70.9562 14.0345C74.0386 14.0345 76.4322 16.558 76.4322 19.7802V25.3605C76.4322 25.4938 76.324 25.6024 76.1911 25.6024H74.0607H74.0583Z" fill="white"/>
<path d="M86.8183 25.6024C86.6855 25.6024 86.5772 25.4938 86.5772 25.3605V20.0074C86.5772 18.9679 86.3238 18.0938 85.8417 17.4839C85.3398 16.8444 84.624 16.521 83.7162 16.521C81.9106 16.521 80.8307 17.8247 80.8307 20.0074V25.3605C80.8307 25.4938 80.7224 25.6024 80.5896 25.6024H78.4592C78.3264 25.6024 78.2181 25.4938 78.2181 25.3605V19.7802C78.2181 16.558 80.6339 14.0345 83.7162 14.0345C86.7986 14.0345 89.1922 16.558 89.1922 19.7802V25.3605C89.1922 25.4938 89.084 25.6024 88.9511 25.6024H86.8208H86.8183Z" fill="white"/>
<path d="M96.3115 16.4123C94.9068 16.4123 93.7777 17.1753 93.2857 18.4518C93.2709 18.4888 93.2758 18.5308 93.3004 18.5654C93.3226 18.5975 93.3595 18.6172 93.3988 18.6172H99.2192C99.2586 18.6172 99.2955 18.5975 99.3201 18.5654C99.3422 18.5333 99.3471 18.4913 99.3324 18.4543C98.8428 17.1777 97.7137 16.4148 96.3115 16.4148M96.3115 25.7901C93.0397 25.7901 90.4788 23.2074 90.4788 19.9135C90.4788 16.6197 93.0421 14.037 96.3115 14.037C99.1479 14.037 101.559 16.0493 102.046 18.8222C102.112 19.2049 102.144 19.5629 102.144 19.916C102.144 20.1234 102.134 20.3358 102.112 20.5456C102.1 20.6716 101.997 20.7654 101.871 20.7654H93.2586C93.2217 20.7654 93.1873 20.7827 93.1627 20.8123C93.1405 20.8419 93.1307 20.879 93.1405 20.916C93.5095 22.4567 94.7248 23.4148 96.309 23.4148C97.6227 23.4148 98.7223 22.7209 99.2487 21.558C99.2881 21.4716 99.3742 21.4148 99.4701 21.4148C99.4972 21.4148 99.5267 21.4197 99.5538 21.4296L101.458 22.1259C101.522 22.1481 101.573 22.1975 101.598 22.2617C101.625 22.3234 101.623 22.395 101.596 22.4567C100.661 24.4839 98.587 25.795 96.3115 25.795" fill="white"/>
<path d="M58.2602 16.5062C56.3906 16.5062 54.8678 18.0346 54.8678 19.9111C54.8678 21.7877 56.3906 23.3161 58.2602 23.3161C60.1298 23.3161 61.6525 21.7877 61.6525 19.9111C61.6525 18.0346 60.1298 16.5062 58.2602 16.5062ZM58.2602 25.7901C55.0302 25.7901 52.4029 23.1531 52.4029 19.9111C52.4029 16.6691 55.0302 14.0321 58.2602 14.0321C61.4901 14.0321 64.1174 16.6691 64.1174 19.9111C64.1174 23.1531 61.4901 25.7901 58.2602 25.7901Z" fill="white"/>
<path d="M47.4632 25.7901C45.8987 25.7901 44.4276 25.1778 43.3231 24.0666C41.0402 21.7753 41.0402 18.0469 43.3231 15.7531C44.4276 14.6444 45.8987 14.0345 47.4657 14.0345C49.0327 14.0345 50.5013 14.6444 51.6059 15.7531C51.6502 15.7975 51.6772 15.8617 51.6772 15.9259C51.6772 15.9901 51.6526 16.0518 51.6059 16.0963L50.2061 17.5012C50.1619 17.5481 50.1004 17.5728 50.0364 17.5728C49.9724 17.5728 49.9109 17.5481 49.8642 17.5012C49.2246 16.8592 48.3734 16.5062 47.4657 16.5062C46.558 16.5062 45.7068 16.8592 45.0672 17.5012C43.7437 18.8296 43.7437 20.9901 45.0672 22.3185C45.7068 22.9605 46.5604 23.316 47.4657 23.316C48.371 23.316 49.2246 22.9605 49.8642 22.3185C49.9109 22.2741 49.97 22.2469 50.0364 22.2469C50.1028 22.2469 50.1619 22.2716 50.2086 22.3185L51.6083 23.7234C51.7018 23.8173 51.7018 23.9728 51.6083 24.0666C50.5013 25.1778 49.0327 25.7901 47.4682 25.7901" fill="white"/>
<path d="M109.022 25.7852C107.458 25.7852 105.984 25.1753 104.88 24.0642C103.775 22.9555 103.167 21.479 103.167 19.9086C103.167 18.3358 103.775 16.8592 104.88 15.7531C105.984 14.6444 107.455 14.0345 109.02 14.0345C110.584 14.0345 112.058 14.6444 113.16 15.7531C113.207 15.8 113.231 15.8592 113.231 15.9259C113.231 15.9926 113.207 16.0518 113.16 16.0987L111.76 17.5037C111.714 17.5506 111.654 17.5753 111.588 17.5753C111.522 17.5753 111.463 17.5506 111.416 17.5037C110.776 16.8617 109.925 16.5086 109.017 16.5086C108.11 16.5086 107.258 16.8617 106.619 17.5037C105.979 18.1457 105.625 19.0024 105.625 19.9111C105.625 20.8222 105.977 21.6765 106.616 22.3185C107.258 22.9605 108.11 23.316 109.017 23.316C109.925 23.316 110.776 22.9629 111.416 22.3185C111.463 22.2716 111.522 22.2469 111.588 22.2469C111.654 22.2469 111.714 22.2716 111.76 22.3185L113.16 23.7234C113.204 23.7679 113.231 23.8321 113.231 23.8963C113.231 23.9605 113.207 24.0222 113.16 24.0691C112.055 25.1778 110.584 25.7876 109.02 25.7876" fill="white"/>
<path d="M120.953 25.6024C117.711 25.6024 115.775 23.5061 115.775 19.9925V16.7876C115.775 16.7209 115.721 16.6666 115.654 16.6666H114.181C114.082 16.6666 113.994 16.6074 113.957 16.516C113.92 16.4246 113.94 16.3209 114.009 16.2518L115.982 14.2716C116.028 14.2271 116.087 14.2 116.154 14.2H122.744C122.877 14.2 122.985 14.3086 122.985 14.4419V16.4518C122.985 16.5851 122.877 16.6938 122.744 16.6938H118.52C118.454 16.6938 118.4 16.7481 118.4 16.8148V20.2197C118.4 22.1876 119.312 23.1061 121.276 23.1061H122.744C122.877 23.1061 122.985 23.2148 122.985 23.3481V25.358C122.985 25.4913 122.877 25.6 122.744 25.6H120.956L120.953 25.6024Z" fill="white"/>
<path d="M23.9358 12.758L25.6233 11.0642C21.5643 8.48639 16.1154 8.96787 12.5804 12.516C10.5337 14.5728 9.50787 17.2716 9.50787 19.9728C9.50787 22.674 10.5312 25.3728 12.5804 27.4296C16.1179 30.9777 21.5643 31.4592 25.6233 28.8815L23.9358 27.1876C20.8239 28.8913 16.8411 28.4321 14.2114 25.7926C12.6124 24.1876 11.8129 22.0815 11.8129 19.9728C11.8129 17.8642 12.6124 15.758 14.2114 14.1531C16.8411 11.5136 20.8239 11.0543 23.9358 12.758Z" fill="white" fill-opacity="0.5"/>
<path d="M15.8867 15.8345C14.7846 16.9407 14.1795 18.4099 14.1795 19.9728C14.1795 21.5358 14.7846 23.0049 15.8867 24.1111C16.9863 25.2148 18.4525 25.8247 20.0072 25.8247C21.1732 25.8247 22.2852 25.4839 23.2323 24.8494L28.2605 29.8963C25.9481 31.8395 23.0601 32.8987 20.0072 32.8987C16.5681 32.8987 13.3332 31.5531 10.9027 29.1136C8.39354 26.595 7.13894 23.2839 7.13894 19.9753C7.13894 16.6666 8.39354 13.358 10.9027 10.837C13.3357 8.39504 16.5681 7.05183 20.0072 7.05183C23.0576 7.05183 25.9481 8.11109 28.2605 10.0543L23.2323 15.0987C22.2852 14.4642 21.1708 14.1234 20.0072 14.1234C18.45 14.1234 16.9863 14.7308 15.8867 15.837M20.0072 16.437C20.9469 16.437 21.8325 16.8049 22.4992 17.4741C22.9494 17.9259 23.68 17.9259 24.1302 17.4741L30.7426 10.837C30.9591 10.6197 31.0821 10.3259 31.0821 10.0197C31.0821 9.71356 30.9616 9.41727 30.7451 9.20245C27.8792 6.32344 24.0662 4.74072 20.0097 4.74072C15.9531 4.74072 12.1426 6.32591 9.27422 9.20492C6.31484 12.1753 4.83392 16.0765 4.83392 19.9802C4.83392 23.8815 6.31238 27.7852 9.27422 30.7555C12.1426 33.6346 15.9556 35.2197 20.0097 35.2197C24.0637 35.2197 27.8767 33.6346 30.7451 30.7555C30.9616 30.5383 31.0821 30.2444 31.0821 29.9358C31.0821 29.6271 30.9616 29.3358 30.7426 29.1185L24.1302 22.4815C23.68 22.0296 22.9494 22.0296 22.4992 22.4815C21.8325 23.1506 20.9494 23.5185 20.0072 23.5185C19.065 23.5185 18.1819 23.1506 17.5177 22.4815C16.851 21.8148 16.4869 20.9259 16.4869 19.9802C16.4869 19.0345 16.8535 18.1481 17.5177 17.479C18.1843 16.8099 19.0675 16.442 20.0072 16.442" fill="white"/>
<path d="M27.7783 24.4988L29.6799 26.4074C30.6639 26.3358 31.6676 26.6766 32.4179 27.4296C33.7906 28.8074 33.7906 31.0519 32.4179 32.4296C29.1043 35.7556 24.6959 37.5901 20.0072 37.5901C15.3184 37.5901 10.9126 35.758 7.59649 32.4296C4.28041 29.1037 2.45509 24.679 2.45509 19.9729C2.45509 15.2667 4.28041 10.8445 7.59649 7.51607C10.9126 4.18767 15.3184 2.35557 20.0072 2.35557C24.6959 2.35557 29.1018 4.18767 32.4179 7.51607C33.7906 8.89384 33.7906 11.1383 32.4179 12.5161C31.6676 13.2692 30.6614 13.6074 29.6799 13.5383L27.7783 15.4469C29.8742 16.279 32.3564 15.8519 34.0489 14.1531C36.3219 11.8716 36.3219 8.16051 34.0489 5.87903C34.0489 5.87903 34.0489 5.87903 34.0464 5.87656C30.2974 2.1136 25.3109 0.0419922 20.0096 0.0419922C14.7059 0.0419922 9.71947 2.11607 5.96797 5.87903C2.21647 9.64446 0.152527 14.6494 0.152527 19.9729C0.152527 25.2963 2.21893 30.3013 5.96797 34.0667C9.71947 37.8321 14.7059 39.9062 20.0096 39.9062C25.3109 39.9062 30.2974 37.8346 34.0464 34.0716C34.0464 34.0716 34.0464 34.0716 34.0489 34.0692C36.3219 31.7877 36.3219 28.0766 34.0489 25.7951C32.3564 24.0963 29.8742 23.6692 27.7783 24.5013" fill="white" fill-opacity="0.5"/>
</g>
<path d="M49.9699 16.35C49.5232 16.35 49.1739 16.7429 49.0314 17.3579L48.928 16.4709H47.8148V21.6724H49.1608V18.6384C49.1608 17.9728 49.3034 17.6404 49.53 17.6404C49.8016 17.6404 49.9117 18.2251 49.7759 19.0516L50.9988 18.2758C51.0245 17.0761 50.6365 16.35 49.9699 16.35ZM45.465 17.2075C45.7629 17.2075 45.9957 17.7114 46.1122 18.2962L45.2191 19.072C45.1478 18.689 45.1027 18.306 45.1027 18.0136C45.1027 17.4999 45.2385 17.2075 45.465 17.2075ZM46.5588 19.4551C46.604 20.1003 46.4555 20.8157 46.1122 20.8157C45.8211 20.8157 45.5557 20.3118 45.3743 19.687L47.4194 18.3966C47.2705 17.2173 46.5972 16.3304 45.6785 16.3304C44.6947 16.3304 43.8599 17.3488 43.8599 19.072C43.8599 20.7152 44.6172 21.8137 45.7435 21.8137C46.8955 21.8137 47.4393 20.6548 47.5494 19.616L46.5588 19.4551ZM43.5689 20.07C43.4524 20.574 43.2647 20.8867 43.0576 20.8867C42.883 20.8867 42.7728 20.7152 42.7728 20.3118V17.5497H43.6658L43.8861 16.4709H42.7728V15.0597H42.4037C42.216 15.9262 41.7629 16.5314 41.3035 16.5412C41.3811 16.9242 41.4068 17.237 41.4068 17.7303V20.0889C41.4068 21.198 41.9118 21.8129 42.7404 21.8129C43.3292 21.8129 43.7891 21.5001 43.9894 21.037L43.5689 20.07ZM41.109 19.9491C41.109 18.961 40.7142 18.5379 40.1578 18.306L39.2774 17.9434C39.1284 17.8829 39.0571 17.7416 39.0571 17.5905C39.0571 17.3284 39.2317 17.1773 39.5553 17.1773C39.989 17.1773 40.3645 17.4999 40.5197 18.1247L41.0372 17.1471C40.72 16.6832 40.1117 16.3304 39.4384 16.3304C38.4998 16.3304 37.8527 17.036 37.8527 18.1647C37.8527 18.9814 38.1893 19.5155 38.9015 19.8079L39.6135 20.1003C39.7755 20.1705 39.8595 20.3118 39.8595 20.5135C39.8595 20.7552 39.7043 20.9268 39.3739 20.9268C38.8369 20.9268 38.2606 20.4735 38.021 19.6666L37.6912 21.0174C38.0729 21.5009 38.7268 21.8137 39.3996 21.8137C40.4488 21.8137 41.109 21.0582 41.109 19.9491ZM36.3392 20.4531L35.6077 16.4717H34.1646L35.2328 21.5923H36.0807C35.893 22.1166 35.6145 22.3485 35.2003 22.3485C34.8505 22.3485 34.5595 22.1673 34.3524 21.8847V23.2861C34.5338 23.5082 34.8117 23.6389 35.1615 23.6389C35.9056 23.6389 36.3072 23.1252 36.624 21.8144L37.9187 16.4717H37.0838L36.3392 20.4531ZM31.5758 20.8761C32.087 20.8761 32.4625 20.2914 32.4625 19.4853C32.4625 18.6792 32.087 18.0944 31.5758 18.0944C31.0645 18.0944 30.689 18.6792 30.689 19.4853C30.689 20.2914 31.0645 20.8761 31.5758 20.8761ZM31.5758 15C33.0839 15 34.1515 16.4112 34.1515 18.4072C34.1515 20.4032 33.0834 21.8144 31.5758 21.8144C30.0681 21.8144 29 20.4032 29 18.4072C28.9995 16.4112 30.0677 15 31.5758 15Z" fill="white"/>
<g clip-path="url(#clip1_1076_24)">
<path d="M32.3611 16.4681H30.1086C30.0857 16.4659 30.0627 16.472 30.0411 16.4863C30.0195 16.5006 29.9997 16.5226 29.9828 16.5512C29.966 16.5797 29.9524 16.6142 29.943 16.6525C29.9335 16.6908 29.9283 16.7322 29.9277 16.7742V16.9671C29.9283 17.0498 29.9467 17.1288 29.9788 17.1868C30.011 17.2449 30.0543 17.2775 30.0994 17.2775H30.8892C30.9143 17.2795 30.9381 17.2987 30.9559 17.3313C30.9737 17.3639 30.9842 17.4075 30.9853 17.4536V22.1923C30.9865 22.2832 31.0071 22.3695 31.0426 22.433C31.0781 22.4965 31.1257 22.532 31.1753 22.532H31.3012C31.3508 22.532 31.3985 22.4965 31.434 22.433C31.4695 22.3695 31.49 22.2832 31.4912 22.1923V17.4494C31.4924 17.4026 31.5032 17.3584 31.5215 17.3257C31.5397 17.293 31.5641 17.2743 31.5897 17.2733H32.3748C32.42 17.2733 32.4633 17.2407 32.4954 17.1826C32.5276 17.1246 32.5459 17.0456 32.5465 16.9629V16.7742C32.5454 16.7318 32.5396 16.6902 32.5297 16.6519C32.5197 16.6135 32.5057 16.5791 32.4885 16.5507C32.4713 16.5223 32.4512 16.5003 32.4293 16.4861C32.4074 16.472 32.3843 16.4658 32.3611 16.4681Z" fill="black"/>
<path d="M39.3865 16.8035C39.3862 16.7589 39.3811 16.7148 39.3715 16.6738C39.3619 16.6328 39.348 16.5957 39.3306 16.5645C39.3131 16.5334 39.2925 16.5088 39.2699 16.4923C39.2473 16.4757 39.2231 16.4675 39.1988 16.468H39.0843C39.06 16.4675 39.0358 16.4757 39.0132 16.4923C38.9906 16.5088 38.97 16.5334 38.9525 16.5645C38.9351 16.5957 38.9212 16.6328 38.9116 16.6738C38.902 16.7148 38.8969 16.7589 38.8966 16.8035V20.1583C38.8959 20.3511 38.8744 20.5417 38.8334 20.7192C38.7925 20.8968 38.7328 21.0578 38.6579 21.1931C38.583 21.3284 38.4942 21.4354 38.3967 21.5079C38.2992 21.5804 38.1949 21.617 38.0897 21.6156C37.9845 21.6142 37.8804 21.5749 37.7835 21.4999C37.6866 21.4248 37.5987 21.3156 37.5248 21.1783C37.451 21.041 37.3926 20.8785 37.353 20.6998C37.3134 20.5212 37.2935 20.3301 37.2942 20.1374V16.7825C37.2939 16.7379 37.2888 16.6939 37.2792 16.6529C37.2696 16.6119 37.2557 16.5747 37.2383 16.5436C37.2208 16.5124 37.2002 16.4879 37.1776 16.4713C37.155 16.4547 37.1308 16.4465 37.1065 16.447H36.9875C36.9631 16.4465 36.9389 16.4547 36.9163 16.4713C36.8937 16.4879 36.8731 16.5124 36.8557 16.5436C36.8382 16.5747 36.8243 16.6119 36.8147 16.6529C36.8051 16.6939 36.8 16.7379 36.7997 16.7825V20.1961C36.7997 20.8278 36.9367 21.4337 37.1806 21.8804C37.4244 22.3271 37.7551 22.578 38.1 22.578C38.4448 22.578 38.7756 22.3271 39.0194 21.8804C39.2632 21.4337 39.4002 20.8278 39.4002 20.1961L39.3865 16.8035Z" fill="black"/>
<path d="M45.8648 21.7183H44.734C44.7212 21.7189 44.7084 21.7148 44.6965 21.7062C44.6845 21.6976 44.6737 21.6847 44.6645 21.6683C44.6553 21.6518 44.648 21.6322 44.6431 21.6106C44.6381 21.5889 44.6355 21.5657 44.6355 21.5422V16.8077C44.6343 16.7168 44.6138 16.6305 44.5783 16.567C44.5428 16.5035 44.4951 16.468 44.4455 16.468H44.3196C44.27 16.468 44.2224 16.5035 44.1869 16.567C44.1514 16.6305 44.1308 16.7168 44.1296 16.8077V22.2006C44.1302 22.2888 44.1498 22.3731 44.1841 22.4351C44.2184 22.4971 44.2646 22.5319 44.3128 22.5319H45.8534C45.875 22.5324 45.8965 22.5252 45.9166 22.5105C45.9367 22.4959 45.9551 22.4741 45.9706 22.4464C45.9861 22.4188 45.9985 22.3858 46.0071 22.3494C46.0156 22.313 46.0202 22.2738 46.0205 22.2341V22.037C46.0239 21.9966 46.0224 21.9553 46.016 21.9161C46.0097 21.8769 45.9986 21.8408 45.9838 21.8103C45.9689 21.7798 45.9505 21.7558 45.9299 21.7399C45.9094 21.724 45.8871 21.7166 45.8648 21.7183V21.7183Z" fill="black"/>
<path d="M35.163 20.0871C35.3609 19.9515 35.532 19.7105 35.6544 19.3951C35.7768 19.0797 35.8448 18.7043 35.8497 18.3174C35.8501 18.0734 35.8239 17.8316 35.7729 17.6061C35.7218 17.3807 35.6469 17.176 35.5523 17.004C35.4578 16.832 35.3456 16.6961 35.2222 16.6041C35.0987 16.5121 34.9666 16.4659 34.8334 16.4681H33.6682C33.6194 16.4692 33.5728 16.5055 33.5385 16.5691C33.5043 16.6326 33.485 16.7184 33.485 16.8078V22.1839C33.485 22.2733 33.5043 22.359 33.5385 22.4226C33.5728 22.4862 33.6194 22.5225 33.6682 22.5236H33.7803C33.8289 22.5214 33.8752 22.4848 33.9093 22.4214C33.9435 22.3581 33.9629 22.2729 33.9635 22.1839V20.3345C33.9632 20.3116 33.9654 20.2888 33.97 20.2675C33.9745 20.2461 33.9814 20.2267 33.9901 20.2102C33.9989 20.1938 34.0093 20.1808 34.0209 20.1719C34.0324 20.163 34.0448 20.1584 34.0573 20.1584H34.6342C34.6442 20.1584 34.6541 20.1629 34.6629 20.1717C34.6717 20.1805 34.6792 20.1933 34.6846 20.2087L35.2843 22.36C35.3084 22.4371 35.3478 22.4941 35.3943 22.5191C35.4409 22.5441 35.4908 22.5352 35.5338 22.4942L35.6346 22.3894C35.6774 22.3445 35.7089 22.2705 35.7222 22.1833C35.7355 22.0962 35.7295 22.003 35.7055 21.9239L35.163 20.0871ZM34.8013 19.412H34.0688C34.0447 19.412 34.0215 19.3951 34.004 19.3646C33.9865 19.3342 33.9761 19.2925 33.9749 19.2484V17.5123C33.9743 17.4681 33.9829 17.4251 33.9991 17.3923C34.0154 17.3595 34.0378 17.3394 34.0619 17.3362H34.7853C34.9371 17.3323 35.0835 17.439 35.1923 17.6328C35.3011 17.8267 35.3635 18.0918 35.3656 18.3699C35.3677 18.6479 35.3095 18.9161 35.2036 19.1155C35.0978 19.3149 34.9531 19.429 34.8013 19.4329V19.412Z" fill="black"/>
<path d="M42.7721 21.7268H41.417C41.4041 21.7273 41.3914 21.7232 41.3795 21.7146C41.3675 21.706 41.3567 21.6931 41.3475 21.6767C41.3383 21.6603 41.331 21.6407 41.3261 21.619C41.3211 21.5974 41.3185 21.5741 41.3185 21.5506V20.0368C41.3185 20.0133 41.3211 19.99 41.3261 19.9684C41.331 19.9467 41.3383 19.9271 41.3475 19.9107C41.3567 19.8943 41.3675 19.8814 41.3795 19.8728C41.3914 19.8642 41.4041 19.8601 41.417 19.8606H42.5409C42.5863 19.8607 42.6299 19.8282 42.6624 19.7703C42.6949 19.7123 42.7137 19.6334 42.7149 19.5503V19.3532C42.7137 19.2702 42.6949 19.1912 42.6624 19.1333C42.6299 19.0753 42.5863 19.0429 42.5409 19.0429H41.417C41.4041 19.0435 41.3914 19.0393 41.3795 19.0307C41.3675 19.0221 41.3567 19.0092 41.3475 18.9928C41.3383 18.9764 41.331 18.9568 41.3261 18.9351C41.3211 18.9135 41.3185 18.8903 41.3185 18.8668V17.4619C41.3185 17.4384 41.3211 17.4152 41.3261 17.3935C41.331 17.3719 41.3383 17.3523 41.3475 17.3359C41.3567 17.3195 41.3675 17.3066 41.3795 17.298C41.3914 17.2894 41.4041 17.2852 41.417 17.2858H42.7721C42.7947 17.2864 42.8171 17.2788 42.838 17.2635C42.859 17.2482 42.8781 17.2255 42.8942 17.1967C42.9104 17.1678 42.9233 17.1335 42.9322 17.0955C42.9411 17.0576 42.9458 17.0168 42.9461 16.9755V16.7742C42.9458 16.7329 42.9411 16.6921 42.9322 16.6541C42.9233 16.6162 42.9104 16.5818 42.8942 16.553C42.8781 16.5242 42.859 16.5015 42.838 16.4862C42.8171 16.4709 42.7947 16.4633 42.7721 16.4639H41.0049C40.9806 16.4622 40.9563 16.4695 40.9336 16.4854C40.9109 16.5013 40.8901 16.5254 40.8726 16.5563C40.855 16.5873 40.8411 16.6244 40.8316 16.6654C40.8221 16.7064 40.8172 16.7506 40.8172 16.7952V22.2006C40.8184 22.29 40.8388 22.3749 40.8739 22.4369C40.9091 22.4989 40.9561 22.5331 41.0049 22.5319H42.7721C42.8161 22.5331 42.8585 22.5025 42.8902 22.4467C42.9219 22.391 42.9403 22.3146 42.9415 22.2342V22.0371C42.9418 21.9962 42.9377 21.9556 42.9293 21.9177C42.9209 21.8798 42.9084 21.8453 42.8926 21.8164C42.8768 21.7875 42.858 21.7646 42.8373 21.7492C42.8166 21.7338 42.7945 21.7262 42.7721 21.7268Z" fill="black"/>
<path d="M55.3099 21.7268H53.9638C53.9383 21.7257 53.9139 21.707 53.8956 21.6743C53.8774 21.6416 53.8666 21.5974 53.8654 21.5506V20.0368C53.8666 19.99 53.8774 19.9458 53.8956 19.9131C53.9139 19.8804 53.9383 19.8616 53.9638 19.8606H55.0855C55.1081 19.8612 55.1305 19.8536 55.1514 19.8383C55.1723 19.823 55.1914 19.8003 55.2076 19.7715C55.2237 19.7427 55.2367 19.7083 55.2456 19.6703C55.2545 19.6324 55.2592 19.5916 55.2595 19.5503V19.3532C55.2583 19.2701 55.2394 19.1912 55.2069 19.1332C55.1744 19.0753 55.1309 19.0429 55.0855 19.0429H53.9638C53.951 19.0434 53.9383 19.0393 53.9263 19.0307C53.9144 19.0221 53.9035 19.0092 53.8944 18.9928C53.8852 18.9764 53.8779 18.9568 53.8729 18.9351C53.868 18.9135 53.8654 18.8902 53.8654 18.8668V17.4619C53.8651 17.4383 53.8674 17.4147 53.8723 17.3928C53.8771 17.3709 53.8844 17.351 53.8936 17.3345C53.9029 17.318 53.9139 17.3051 53.926 17.2967C53.938 17.2884 53.9509 17.2846 53.9638 17.2858H55.319C55.3644 17.2858 55.4079 17.2534 55.4404 17.1954C55.4729 17.1375 55.4918 17.0585 55.493 16.9755V16.7742C55.4927 16.7329 55.488 16.6921 55.479 16.6541C55.4701 16.6162 55.4572 16.5818 55.4411 16.553C55.4249 16.5242 55.4058 16.5015 55.3849 16.4862C55.3639 16.4709 55.3416 16.4633 55.319 16.4639H53.5495C53.5254 16.4627 53.5014 16.4705 53.4789 16.4866C53.4564 16.5028 53.4359 16.527 53.4186 16.5579C53.4014 16.5887 53.3876 16.6256 53.3783 16.6664C53.3689 16.7071 53.3641 16.7509 53.3641 16.7951V22.2006C53.3644 22.2447 53.3694 22.2882 53.3789 22.3287C53.3884 22.3692 53.4021 22.4059 53.4193 22.4366C53.4365 22.4674 53.4569 22.4916 53.4792 22.508C53.5016 22.5243 53.5254 22.5325 53.5495 22.5319H55.319C55.3629 22.533 55.4054 22.5024 55.4371 22.4467C55.4688 22.391 55.4872 22.3146 55.4884 22.2342V22.0371C55.4884 21.9949 55.4838 21.9531 55.4747 21.9143C55.4656 21.8755 55.4523 21.8405 55.4356 21.8115C55.4189 21.7824 55.3991 21.76 55.3775 21.7454C55.3559 21.7308 55.3329 21.7245 55.3099 21.7268V21.7268Z" fill="black"/>
<path d="M49.7907 21.9952L48.3783 16.5436C48.3693 16.5177 48.3572 16.4959 48.343 16.4799C48.3287 16.464 48.3126 16.4542 48.2959 16.4513H48.241C48.2246 16.4538 48.2087 16.4635 48.1948 16.4796C48.1809 16.4956 48.1692 16.5176 48.1609 16.5436L46.7416 21.9952C46.7321 22.0331 46.7268 22.0741 46.726 22.1159C46.7252 22.1576 46.729 22.1992 46.7371 22.2382C46.7452 22.2773 46.7574 22.313 46.7732 22.3432C46.7889 22.3735 46.8077 22.3977 46.8286 22.4145L46.9339 22.4942C46.977 22.5288 47.0256 22.5325 47.0701 22.5045C47.1146 22.4766 47.1518 22.419 47.1742 22.3432L47.4535 21.2613C47.4629 21.2449 47.475 21.2346 47.4878 21.2319H49.0239C49.0335 21.2329 49.0428 21.238 49.0512 21.2467C49.0595 21.2554 49.0666 21.2676 49.0719 21.2823L49.3512 22.3516C49.3729 22.4289 49.4098 22.488 49.4545 22.5168C49.4992 22.5457 49.5483 22.5421 49.5916 22.5068L49.6969 22.4229C49.7402 22.3887 49.7744 22.3246 49.7919 22.2445C49.8095 22.1643 49.8091 22.0747 49.7907 21.9952V21.9952ZM48.7972 20.4897H47.7282C47.7146 20.4897 47.7016 20.4801 47.6918 20.4629C47.682 20.4457 47.6761 20.4223 47.6756 20.3974C47.6742 20.393 47.6734 20.3879 47.6734 20.3827C47.6734 20.3776 47.6742 20.3725 47.6756 20.3681L48.241 18.179C48.2439 18.1767 48.247 18.1755 48.2501 18.1755C48.2533 18.1755 48.2564 18.1767 48.2593 18.179C48.2645 18.1755 48.2702 18.1755 48.2753 18.179L48.843 20.3681C48.8457 20.3779 48.8472 20.3887 48.8474 20.3996C48.8477 20.4106 48.8467 20.4215 48.8446 20.4317C48.8424 20.442 48.8391 20.4513 48.8349 20.4591C48.8307 20.4669 48.8257 20.473 48.8201 20.4771C48.8119 20.4814 48.8032 20.4814 48.795 20.4771L48.7972 20.4897Z" fill="black"/>
<path d="M52.3614 16.6903L52.247 16.5351C52.2273 16.5081 52.205 16.4886 52.1812 16.4775C52.1574 16.4665 52.1326 16.4642 52.1084 16.4709C52.0841 16.4775 52.0608 16.4929 52.0398 16.5162C52.0188 16.5394 52.0005 16.5701 51.986 16.6064L51.1436 18.7032C51.1373 18.7135 51.1291 18.7192 51.1207 18.7192C51.1123 18.7192 51.1041 18.7135 51.0978 18.7032L50.2485 16.6064C50.2183 16.5369 50.1748 16.491 50.1268 16.4778C50.0789 16.4645 50.0299 16.485 49.9899 16.5351L49.8731 16.6903C49.844 16.747 49.8278 16.822 49.8278 16.9C49.8278 16.9779 49.844 17.0529 49.8731 17.1096L50.8781 19.6258V22.2006C50.8792 22.2914 50.8998 22.3778 50.9353 22.4413C50.9708 22.5048 51.0184 22.5403 51.0681 22.5403H51.1894C51.239 22.5403 51.2866 22.5048 51.3221 22.4413C51.3576 22.3778 51.3782 22.2914 51.3794 22.2006V19.6048L52.3614 17.1138C52.3918 17.0573 52.4088 16.9813 52.4088 16.902C52.4088 16.8228 52.3918 16.7468 52.3614 16.6903Z" fill="black"/>
<path d="M58.343 20.0912C58.5407 19.9552 58.7117 19.714 58.834 19.3987C58.9564 19.0834 59.0245 18.7083 59.0297 18.3216C59.03 18.0784 59.0041 17.8374 58.9535 17.6126C58.903 17.3877 58.8286 17.1833 58.7349 17.0112C58.6411 16.839 58.5297 16.7024 58.4071 16.6092C58.2844 16.516 58.153 16.468 58.0202 16.468H56.8482C56.7994 16.4691 56.7528 16.5054 56.7185 16.569C56.6843 16.6326 56.665 16.7183 56.665 16.8077V22.1922C56.665 22.2816 56.6843 22.3673 56.7185 22.4309C56.7528 22.4945 56.7994 22.5308 56.8482 22.5319H56.9581C57.0068 22.5308 57.0534 22.4945 57.0877 22.4309C57.122 22.3673 57.1412 22.2816 57.1412 22.1922V20.3261C57.1412 20.3031 57.1437 20.2804 57.1485 20.2593C57.1534 20.2382 57.1605 20.219 57.1695 20.203C57.1784 20.187 57.1891 20.1744 57.2007 20.166C57.2124 20.1576 57.2248 20.1536 57.2373 20.1541H57.8142C57.8243 20.1532 57.8344 20.1574 57.8432 20.1663C57.8521 20.1752 57.8595 20.1884 57.8646 20.2045L58.4643 22.3558C58.4758 22.3947 58.4914 22.4291 58.5102 22.457C58.529 22.4848 58.5506 22.5056 58.5738 22.5181C58.597 22.5305 58.6213 22.5345 58.6454 22.5297C58.6694 22.5248 58.6927 22.5113 58.7138 22.49L58.8123 22.3893C58.8555 22.3451 58.8875 22.2714 58.9012 22.1842C58.915 22.097 58.9093 22.0034 58.8855 21.9238L58.343 20.0912ZM57.9767 19.4161H57.2442C57.2201 19.4161 57.1969 19.3992 57.1794 19.3687C57.1619 19.3383 57.1515 19.2967 57.1503 19.2525V17.4912C57.15 17.4683 57.1522 17.4455 57.1568 17.4242C57.1614 17.4028 57.1683 17.3834 57.177 17.3669C57.1858 17.3505 57.1962 17.3375 57.2077 17.3286C57.2193 17.3197 57.2317 17.3151 57.2442 17.3151H57.9653C58.1084 17.3358 58.2421 17.4539 58.3401 17.6462C58.4381 17.8384 58.4932 18.0909 58.4946 18.3539C58.4961 18.6169 58.4437 18.8714 58.3479 19.0672C58.252 19.263 58.1196 19.386 57.9767 19.4119V19.4161Z" fill="black"/>
<path d="M21.38 22.8884L24.2895 25.8617C24.3561 25.9503 24.4362 25.998 24.5184 25.998C24.6007 25.998 24.6808 25.9503 24.7474 25.8617L27.8354 22.6829C27.943 22.5571 28.0186 22.4565 28.0186 22.23C28.0156 22.1458 28.0002 22.0646 27.974 21.9952C27.9478 21.9257 27.9118 21.8707 27.8698 21.8358L27.0411 20.842L27.8309 20.0242C27.9046 19.9623 27.9681 19.8657 28.0147 19.7441C28.0614 19.6225 28.0896 19.4804 28.0964 19.3323V17.1265C28.1068 16.952 28.0861 16.7761 28.0374 16.6249C27.9887 16.4738 27.9147 16.3555 27.8263 16.2878C27.8263 16.2878 24.7954 13.1636 24.7954 13.1636C24.7126 13.0571 24.6139 13 24.5127 13C24.4116 13 24.3128 13.0571 24.23 13.1636L21.1969 16.3297C21.1436 16.3795 21.0988 16.4551 21.0673 16.5482C21.0359 16.6414 21.0189 16.7486 21.0183 16.8581C21.0183 17.1265 21.174 17.332 21.1969 17.3655L21.9866 18.2042L21.1511 19.1142C21.1115 19.1592 21.0783 19.2206 21.054 19.2935C21.0298 19.3663 21.0152 19.4485 21.0115 19.5336V21.6639C20.9908 21.9139 21.0157 22.1693 21.0824 22.3907C21.149 22.6121 21.2536 22.787 21.38 22.8884V22.8884ZM27.4738 22.2678L24.5184 25.241L21.6639 22.3517L22.5566 21.4333L24.4109 23.3371C24.4428 23.3666 24.4781 23.382 24.5139 23.382C24.5497 23.382 24.5849 23.3666 24.6169 23.3371L26.6199 21.2404L27.4738 22.2678ZM27.721 19.1017L26.9244 18.2252L27.721 17.3865V19.1017ZM24.7451 13.9813L27.4554 16.8371L26.5627 17.8184L24.7313 15.8223L24.7451 13.9813ZM24.5162 16.4429L26.1666 18.2462L24.5162 19.9529L22.8313 18.2042L24.523 16.4429H24.5162ZM21.5242 16.8581L24.301 13.9813V15.8223L22.3735 17.7807L21.5242 16.8581ZM22.401 18.6487L24.4109 20.7162C24.4437 20.7478 24.4802 20.7643 24.5173 20.7643C24.5544 20.7643 24.5909 20.7478 24.6238 20.7162L26.5512 18.6487L27.4211 19.6007L24.5139 22.5697L21.5586 19.5168L22.401 18.6487ZM21.3915 20.2087L22.1721 21.0055L21.3915 21.8065V20.2087Z" fill="#F7AB1B"/>
</g>
<g clip-path="url(#clip2_1076_24)">
<path d="M41.8556 20.8652C41.8377 20.8721 41.8218 20.8831 41.8091 20.8974C41.7965 20.9112 41.7877 20.9279 41.7836 20.946C41.779 20.9643 41.7794 20.9834 41.7847 21.0014C41.7892 21.0192 41.7993 21.0358 41.8114 21.05C41.8636 21.1285 41.9566 21.2636 42.0911 21.4541C42.2253 21.6445 42.3298 21.7894 42.403 21.8913C42.4329 21.9422 42.4741 21.9455 42.5262 21.9023C42.7169 21.7444 42.8961 21.5731 43.0624 21.3898C43.5266 20.8347 43.8314 20.1641 43.9446 19.4495C43.9526 19.4417 43.9369 19.4495 43.9002 19.4717C42.9101 20.1367 42.2288 20.6018 41.8558 20.8652H41.8556ZM43.6839 17.3939C43.6726 17.3906 43.6439 17.4028 43.5995 17.4315L42.2131 18.3691C41.7638 18.6757 41.3136 18.9808 40.8623 19.2844C40.7959 19.323 40.7438 19.3795 40.7115 19.4474C40.7003 19.4903 40.7237 19.5558 40.7835 19.6444L41.3398 20.4179C41.3919 20.491 41.4329 20.531 41.463 20.5375C41.4927 20.5443 41.5451 20.523 41.6195 20.4724C41.8634 20.2986 42.1109 20.1299 42.3618 19.9664C42.5893 19.818 42.8147 19.6663 43.0378 19.5114C43.3239 19.3228 43.6073 19.1302 43.888 18.9337C43.9209 18.9176 43.9487 18.8928 43.9685 18.862C43.9883 18.8312 43.9991 18.7955 44 18.7589C43.9797 18.3159 43.8902 17.8788 43.7349 17.4635C43.7115 17.4214 43.6949 17.3983 43.6839 17.3939ZM39.6237 17.933C39.6237 17.997 39.6471 18.0589 39.6904 18.1078L40.2562 18.9136C40.3006 18.9787 40.3341 19.0134 40.3628 19.0167C40.4145 19.0111 40.4633 18.9903 40.503 18.9568C40.6452 18.8626 41.1221 18.5406 41.9347 17.9881C42.6507 17.5011 43.1202 17.1892 43.3433 17.0295C43.4173 16.9866 43.4564 16.9534 43.4597 16.9324C43.4629 16.9101 43.4431 16.8672 43.3974 16.8017C43.2031 16.5167 42.9742 16.2568 42.7161 16.028C42.6418 15.9539 42.5917 15.9172 42.5651 15.9172C42.5021 15.934 42.4433 15.9634 42.3921 16.0037C42.3877 16.0034 42.3834 16.0045 42.3796 16.0066C42.3757 16.0084 42.3723 16.0111 42.3698 16.0146C42.3663 16.0179 42.3509 16.0235 42.3476 16.0256C42.3441 16.028 42.3521 16.0256 42.3476 16.0256C41.4797 16.6148 40.6114 17.2033 39.7425 17.7911C39.6866 17.8218 39.6442 17.8725 39.624 17.933H39.6237ZM41.6826 21.7607C41.5593 21.5903 41.4796 21.4763 41.4429 21.4177C41.3831 21.3377 41.3386 21.2935 41.3087 21.287C41.2465 21.2867 41.1851 21.3014 41.1298 21.3299C40.5626 21.5681 39.934 21.6178 39.3364 21.4718C38.7676 21.3505 38.2547 21.0451 37.8768 20.603C37.295 19.9077 37.1055 19.1405 37.3063 18.3036C37.5661 17.2067 38.2374 16.5336 39.3186 16.2869C39.809 16.1782 40.3199 16.2073 40.7947 16.371C40.8407 16.3896 40.8909 16.3953 40.9399 16.3876C40.9888 16.3798 41.0348 16.3591 41.0732 16.3277C41.1034 16.3058 41.2643 16.1974 41.5552 16.0013C41.8381 15.812 42.0025 15.6991 42.0469 15.6636C42.0914 15.628 42.118 15.6061 42.1245 15.5984C42.1245 15.5839 42.0988 15.562 42.0466 15.5332C41.2752 15.0849 40.3743 14.9118 39.4916 15.0424C38.6034 15.1507 37.7783 15.5578 37.152 16.1968C36.6284 16.7128 36.2623 17.3671 36.0965 18.0832C35.933 18.7956 35.978 19.5399 36.2262 20.2274C36.4782 20.9223 36.9271 21.5288 37.5181 21.9727C38.1371 22.4531 38.8872 22.7345 39.6694 22.78C40.4541 22.8446 41.2406 22.6775 41.9314 22.2995C41.9458 22.2952 41.9588 22.2871 41.969 22.2761C41.9791 22.2652 41.9863 22.252 41.99 22.2376C41.9937 22.2233 41.9933 22.2083 41.989 22.1942C41.9847 22.1802 41.9767 22.1675 41.9658 22.1576C41.8991 22.0658 41.8058 21.9331 41.6826 21.7607Z" fill="white"/>
</g>
<defs>
<clipPath id="clip0_1076_24">
<rect width="123" height="40" fill="white"/>
</clipPath>
<clipPath id="clip1_1076_24">
<rect width="38" height="13" fill="white" transform="translate(21 13)"/>
</clipPath>
<clipPath id="clip2_1076_24">
<rect width="8" height="8" fill="white" transform="translate(36 15)"/>
</clipPath>
</defs>
</svg>
