<svg width="187" height="29" viewBox="0 0 187 29" fill="none" xmlns="http://www.w3.org/2000/svg">
<g clip-path="url(#clip0_1_169)">
<path d="M4.01198 20.7402C5.39402 22.6232 7.85371 23.8124 10.1187 23.8124C11.9242 23.8124 13.4991 23.198 13.4991 21.7384C13.4991 20.2014 12.0017 20.0104 8.77444 19.396C5.51124 18.7437 1.90016 17.8986 1.90016 13.5577C1.90016 9.6782 5.3184 6.98975 10.1584 6.98975C13.7297 6.98975 16.9192 8.4493 18.4922 10.4855L15.4199 13.8659C14.0757 12.1379 12.117 11.1775 10.0052 11.1775C8.31502 11.1775 7.20145 11.9072 7.20145 13.0208C7.20145 14.3272 8.54567 14.5579 11.0432 15.057C14.5767 15.7868 18.7626 16.5941 18.7626 21.1637C18.7626 25.3892 14.8452 28.0001 10.0052 28.0001C6.35634 28.0001 2.51461 26.6559 0.671265 24.1584L4.01198 20.7402Z" fill="white"/>
<path d="M23.1015 11.8675H20.4131V7.37539H23.1015V1.61279H28.4028V7.3735H32.513V11.8675H28.4028V21.2014C28.4028 22.9295 29.3633 23.1601 30.9381 23.1601C31.7057 23.1601 32.0895 23.1223 32.7815 23.0448V27.501C31.8211 27.6938 30.6697 27.8073 29.3254 27.8073C25.2549 27.8073 23.1034 26.463 23.1034 22.315V11.8675H23.1015Z" fill="white"/>
<path d="M35.6627 21.971C35.6627 17.9383 38.8881 16.2481 42.9605 15.5183L47.9914 14.5579V14.2497C47.9914 12.5217 47.1085 11.4459 44.8795 11.4459C42.883 11.4459 41.845 12.3288 41.3837 14.1344L36.2753 13.1739C37.1979 9.75572 40.2701 6.98975 45.0704 6.98975C50.1789 6.98975 53.2511 9.33222 53.2511 14.0191V22.2773C53.2511 23.353 53.7124 23.699 54.9035 23.544V27.5766C51.4853 28.0758 49.4113 27.3838 48.5283 25.6936C47.2219 27.1153 45.1876 27.9207 42.537 27.9207C38.5818 27.9226 35.6627 25.5423 35.6627 21.971ZM47.9914 18.3202L44.0362 19.1275C42.2685 19.4735 40.964 20.0501 40.964 21.6628C40.964 23.0448 42.0019 23.8521 43.6146 23.8521C45.8815 23.8521 47.9933 22.661 47.9933 20.3961V18.3202H47.9914Z" fill="white"/>
<path d="M58.3993 7.37549H63.7762V9.4495C64.8898 8.14308 66.7331 6.9917 69.3062 6.9917C73.5318 6.9917 76.1049 9.87299 76.1049 14.2517V27.5805H70.728V15.7868C70.728 13.52 69.8054 11.9073 67.5026 11.9073C65.6214 11.9073 63.7762 13.2515 63.7762 15.9022V27.5786H58.3993V7.37549Z" fill="white"/>
<path d="M79.2943 17.4768C79.2943 11.7539 82.5197 6.99149 88.0895 6.99149C90.6248 6.99149 92.5456 7.98974 93.7348 9.44929V0H99.1117V27.5784H93.7348V25.5044C92.5437 27.0018 90.6229 28.0019 88.0895 28.0019C82.5216 28 79.2943 23.2375 79.2943 17.4768ZM89.3581 11.5989C86.3236 11.5989 84.7109 14.0189 84.7109 17.4749C84.7109 20.9707 86.3236 23.3907 89.3581 23.3907C91.9312 23.3907 93.852 21.4698 93.852 18.0516V16.938C93.852 13.482 91.9312 11.5989 89.3581 11.5989Z" fill="white"/>
<path d="M102.188 21.971C102.188 17.9383 105.415 16.2481 109.486 15.5183L114.516 14.5579V14.2497C114.516 12.5217 113.634 11.4459 111.404 11.4459C109.408 11.4459 108.37 12.3288 107.909 14.1344L102.8 13.1739C103.723 9.75572 106.795 6.98975 111.595 6.98975C116.704 6.98975 119.776 9.33222 119.776 14.0191V22.2773C119.776 23.353 120.237 23.699 121.429 23.544V27.5766C118.01 28.0758 115.936 27.3838 115.053 25.6936C113.747 27.1153 111.713 27.9207 109.062 27.9207C105.107 27.9226 102.188 25.5423 102.188 21.971ZM114.516 18.3202L110.559 19.1275C108.794 19.4735 107.487 20.0501 107.487 21.6628C107.487 23.0448 108.525 23.8521 110.138 23.8521C112.405 23.8521 114.516 22.661 114.516 20.3961V18.3202Z" fill="white"/>
<path d="M136.525 12.5989C135.911 12.5213 135.449 12.4835 134.797 12.4835C131.993 12.4835 129.842 14.2116 129.842 17.3235V27.5782H124.465V7.37509H129.842V10.2167C130.725 8.44896 132.723 7.25977 135.219 7.25977C135.756 7.25977 136.141 7.29758 136.525 7.33728V12.5989Z" fill="white"/>
<path d="M137.561 17.4768C137.561 11.7539 140.788 6.99149 146.356 6.99149C148.892 6.99149 150.812 7.98974 152.002 9.44929V0H157.379V27.5784H152.002V25.5044C150.811 27.0018 148.89 28.0019 146.356 28.0019C140.788 28 137.561 23.2375 137.561 17.4768ZM147.625 11.5989C144.59 11.5989 142.978 14.0189 142.978 17.4749C142.978 20.9707 144.59 23.3907 147.625 23.3907C150.198 23.3907 152.119 21.4698 152.119 18.0516V16.938C152.119 13.482 150.198 11.5989 147.625 11.5989Z" fill="white"/>
<path d="M163.181 20.7402C164.563 22.6232 167.023 23.8124 169.288 23.8124C171.093 23.8124 172.668 23.198 172.668 21.7384C172.668 20.2014 171.171 20.0104 167.943 19.396C164.678 18.7437 161.067 17.8986 161.067 13.5577C161.067 9.6782 164.485 6.98975 169.325 6.98975C172.897 6.98975 176.086 8.4493 177.659 10.4855L174.589 13.8659C173.245 12.1379 171.286 11.1775 169.174 11.1775C167.484 11.1775 166.37 11.9072 166.37 13.0208C166.37 14.3272 167.715 14.5579 170.212 15.057C173.746 15.7868 177.932 16.5941 177.932 21.1637C177.932 25.3892 174.014 28.0001 169.174 28.0001C165.525 28.0001 161.684 26.6559 159.84 24.1584L163.181 20.7402Z" fill="white"/>
<path d="M180.081 21.3545H186.381V27.5765H180.081V21.3545Z" fill="#FF2E01"/>
</g>
<defs>
<clipPath id="clip0_1_169">
<rect width="187" height="29" fill="white"/>
</clipPath>
</defs>
</svg>
