<svg width="97" height="34" viewBox="0 0 97 34" fill="none" xmlns="http://www.w3.org/2000/svg">
<g clip-path="url(#clip0_1_155)">
<path fill-rule="evenodd" clip-rule="evenodd" d="M68.3517 28.0448C64.9523 28.0448 62.4028 25.6168 62.4028 21.7317C62.4028 17.8467 64.9523 15.4186 68.3517 15.4186C71.8725 15.4186 74.3006 17.8467 74.3006 21.7317C74.3006 25.6168 71.8725 28.0448 68.3517 28.0448ZM80.1282 27.0736V22.703V0H74.422V13.2333C72.8437 11.1694 70.0514 10.3195 67.5018 10.3195C61.1888 10.3195 56.4538 14.8116 56.4538 21.8532C56.4538 29.3803 61.0673 33.2654 67.3804 33.2654C70.2942 33.2654 73.0865 32.0513 74.5434 29.9874C74.578 30.2986 74.6027 30.59 74.626 30.8646V30.8647V30.8648C74.6845 31.5543 74.734 32.1374 74.9076 32.6583H80.1282V27.0736ZM20.6392 10.9265V4.24914H26.2239V10.9265H30.3517V15.6613H26.2239V32.6583H20.6392V15.6613V10.9265ZM12.0192 26.4665C12.0192 28.0447 10.5624 28.6518 8.86266 28.6518C6.79876 28.6518 5.46328 27.6806 5.22048 26.1023L0 26.9522C0.485626 30.4729 3.39938 33.1438 8.86266 33.1438C14.4473 33.1438 17.6039 30.4729 17.6039 26.4665C17.6039 23.3099 15.54 21.1247 11.5336 20.032L8.74126 19.3036C7.04156 18.8179 6.31313 18.2109 6.31313 17.1182C6.31313 15.7827 7.40579 14.9329 9.10548 14.9329C10.6838 14.9329 12.0192 15.7827 12.1406 17.2396L17.2398 16.0255C16.6327 12.3834 13.2333 10.3194 8.98407 10.3194C3.64219 10.3194 0.728438 13.3546 0.728438 17.2396C0.728438 20.1533 2.42813 22.46 7.04156 23.6742L9.95532 24.4026C11.2908 24.7668 12.0192 25.3738 12.0192 26.4665ZM37.3932 19.9106H47.8343C47.5913 16.6327 45.6489 15.0544 42.8565 15.0544C39.8214 15.0544 38.0003 16.754 37.3932 19.9106ZM53.6617 23.7957H37.3932C37.7575 27.0736 40.307 28.2876 42.8565 28.2876C45.5275 28.2876 47.1057 27.0736 48.0771 25.1312L52.8119 26.9522C51.2336 30.7158 47.3485 33.0226 42.8565 33.0226C36.422 33.0226 31.93 28.5305 31.93 21.6103C31.93 14.8116 36.3006 10.0767 42.8565 10.0767C49.2911 10.0767 53.6617 14.5688 53.6617 21.6103V23.7957ZM84.7414 10.9265H90.4475V32.5368H84.7414V10.9265ZM90.4154 5.70779L90.4319 0.00168955L96.1379 0.0182372L96.1214 5.72433L90.4154 5.70779Z" fill="white"/>
</g>
<defs>
<clipPath id="clip0_1_155">
<rect width="97" height="34" fill="white"/>
</clipPath>
</defs>
</svg>
