<svg width="137" height="40" viewBox="0 0 137 40" fill="none" xmlns="http://www.w3.org/2000/svg">
<g clip-path="url(#clip0_1_157)">
<path fill-rule="evenodd" clip-rule="evenodd" d="M116.617 11.0433C116.617 11.0433 120.801 1.97542 120.932 1.77747C121.242 1.29886 121.733 0.806688 122.652 0.462304C123.338 0.207405 124.445 0 126.243 0C128.401 0 129.659 0.318583 130.389 0.672459C131.99 1.44799 132.284 2.55438 132.288 3.53329L132.289 4.50543L132.825 4.49728C133.656 4.49728 134.336 4.6383 134.914 5.10064C135.29 5.40165 135.687 5.86261 135.933 6.72085C136.086 7.26181 136.202 8.13227 136.202 9.53557C136.202 10.9145 136.086 11.8052 135.927 12.3855C135.855 12.6485 135.771 12.875 135.678 13.073C135.668 13.2614 135.609 13.4485 135.5 13.6166L132.295 18.4908V21.3205C133.097 21.3272 133.758 21.4723 134.32 21.9238C134.697 22.2248 135.095 22.6858 135.338 23.544C135.493 24.0864 135.61 24.9555 135.61 26.3588C135.61 28.0495 135.423 29.0352 135.201 29.6195C134.973 30.2229 130.169 38.2413 130.067 38.328C130.067 38.328 128.688 39.49 126.944 39.49H120.328C119.375 39.49 118.205 39.1782 117.409 38.2982C116.88 37.7125 116.491 36.8706 116.491 35.653V11.5517C116.491 11.3741 116.535 11.2005 116.617 11.0433Z" fill="#E27152"/>
<path fill-rule="evenodd" clip-rule="evenodd" d="M87.7326 15.0455C88.4862 15.8576 88.9529 16.9694 88.9529 18.4215C88.9529 19.8777 88.8563 25.6671 88.8089 28.4465C88.7929 29.4309 88.4862 30.3881 87.9262 31.1975C86.363 33.478 83.2014 38.4038 83.1891 38.4214C83.1891 38.4214 82.6115 39.5183 79.4739 39.5183H58.7065C57.6057 39.5183 56.7257 39.136 56.1102 38.5109C55.5017 37.8927 55.1353 37.0154 55.1353 35.9389C55.1353 31.9704 55.1353 19.052 55.1353 19.0763C55.1353 19.0763 55.1395 17.8846 55.8851 16.6752C56.5225 15.6407 61.4697 7.0718 61.8537 6.50642C62.6302 5.36343 64.5097 4.76416 66.1785 4.76416C67.8478 4.76416 79.5635 4.81978 82.1534 4.81978C84.8446 4.81978 86.4121 5.70514 87.3785 6.73148C88.8377 8.28124 88.9529 10.3936 88.9529 11.462C88.9529 12.4924 88.8633 13.5676 88.2841 14.415C88.1363 14.6306 87.9577 14.8448 87.7326 15.0455Z" fill="#E27152"/>
<path fill-rule="evenodd" clip-rule="evenodd" d="M116.822 15.0455C117.576 15.8576 118.042 16.9694 118.042 18.4215C118.042 19.8777 117.946 25.6671 117.898 28.4465C117.882 29.4309 117.576 30.3881 117.016 31.1975C115.453 33.478 112.29 38.4038 112.279 38.4214C112.279 38.4214 111.701 39.5183 108.564 39.5183H87.7961C86.6953 39.5183 85.8153 39.136 85.1998 38.5109C84.5907 37.8927 84.2249 37.0154 84.2249 35.9389C84.2249 31.9704 84.2249 19.052 84.2249 19.0763C84.2249 19.0763 84.2291 17.8846 84.9747 16.6752C85.6121 15.6407 90.5593 7.0718 90.9433 6.50642C91.7198 5.36343 93.5993 4.76416 95.2681 4.76416C96.9374 4.76416 108.653 4.81978 111.242 4.81978C113.934 4.81978 115.501 5.70514 116.468 6.73148C117.927 8.28124 118.042 10.3936 118.042 11.462C118.042 12.4924 117.953 13.5676 117.374 14.415C117.226 14.6306 117.047 14.8448 116.822 15.0455Z" fill="#E27152"/>
<path d="M123.085 6.61355L123.042 3.54934C123.042 2.79278 123.094 2.07422 126.498 2.07422C129.855 2.07422 130.186 2.82669 130.189 3.52087L130.196 6.61355L132.821 6.57013C133.577 6.57013 134.105 6.41424 134.105 9.51499C134.105 12.2931 133.642 12.6281 133.038 12.6687V12.6714H130.196V22.1839C130.196 23.4259 130.901 23.434 130.901 23.434L132.227 23.3934C132.985 23.3934 133.512 23.2374 133.512 26.3396C133.512 29.4404 132.935 29.4973 132.227 29.4973C132.227 29.4973 126.173 29.4973 124.839 29.4973C122.87 29.4973 123.085 28.0167 123.085 27.1178V12.6714L122.068 12.6755C121.311 12.6755 120.784 12.8314 120.784 9.72928C120.784 6.62848 121.36 6.57152 122.068 6.57152L123.085 6.61355Z" fill="#FFFBF9"/>
<path fill-rule="evenodd" clip-rule="evenodd" d="M80.1165 21.3475C80.1165 21.1983 80.0584 21.0573 79.9523 20.9515C79.8483 20.8471 79.7059 20.7889 79.5581 20.7889C77.0035 20.7956 66.5773 20.8214 66.5773 20.8214C64.6275 20.8214 62.6248 19.8615 62.6248 17.9213C62.6248 17.2623 62.5736 11.4526 62.5736 11.2506C62.5736 8.01824 64.4701 6.6665 66.6339 6.6665H82.5517C87.2675 6.6665 87.2579 10.7828 87.2579 12.0261C87.2579 12.8329 87.4136 13.9175 84.3128 13.9175C81.2109 13.9175 80.8973 13.4538 80.8973 13.0863C80.8973 12.7189 80.6509 12.5142 80.396 12.5142C80.1411 12.5142 72.6349 12.525 70.2637 12.525C70.0872 12.525 69.9192 12.5942 69.7944 12.7189C69.6712 12.8423 69.6008 13.0105 69.6008 13.1867C69.6008 13.5311 69.6008 14.2117 69.6008 14.5561C69.6008 14.731 69.6712 14.8991 69.7944 15.0238C69.9192 15.1486 70.0872 15.2178 70.2637 15.2178C73.0963 15.2178 84.0568 15.2178 84.0568 15.2178C86.0061 15.2178 87.2579 16.1763 87.2579 18.1179V26.8874C87.2579 28.6107 85.9224 29.6302 83.7581 29.6302H66.9747C63.8168 29.6302 62.6248 27.7822 62.6248 25.4733V23.4951C62.6248 23.0721 62.9896 22.1325 66.092 22.1325C69.1928 22.1325 69.3389 22.5528 69.5101 22.8931C69.6781 23.2307 69.9411 23.4951 70.2637 23.4951C70.5848 23.4951 77.3725 23.4978 79.5581 23.4991C79.7069 23.4991 79.8483 23.4395 79.9539 23.3351C80.0584 23.2307 80.1165 23.0884 80.1165 22.9406C80.1165 22.4741 80.1165 21.8139 80.1165 21.3475Z" fill="#FFFBF9"/>
<path fill-rule="evenodd" clip-rule="evenodd" d="M109.206 21.3475C109.206 21.1983 109.148 21.0573 109.042 20.9515C108.937 20.8471 108.795 20.7889 108.647 20.7889C106.093 20.7956 95.667 20.8214 95.667 20.8214C93.7171 20.8214 91.7145 19.8615 91.7145 17.9213C91.7145 17.2623 91.6627 11.4526 91.6627 11.2506C91.6627 8.01824 93.5598 6.6665 95.7235 6.6665H111.641C116.357 6.6665 116.348 10.7828 116.348 12.0261C116.348 12.8329 116.503 13.9175 113.402 13.9175C110.3 13.9175 109.987 13.4538 109.987 13.0863C109.987 12.7189 109.741 12.5142 109.486 12.5142C109.231 12.5142 101.725 12.525 99.3518 12.525C99.1769 12.525 99.0089 12.5942 98.8841 12.7189C98.7609 12.8423 98.6905 13.0105 98.6905 13.1867C98.6905 13.5311 98.6905 14.2117 98.6905 14.5561C98.6905 14.731 98.7609 14.8991 98.8841 15.0238C99.0089 15.1486 99.1769 15.2178 99.3518 15.2178C102.185 15.2178 113.146 15.2178 113.146 15.2178C115.096 15.2178 116.348 16.1763 116.348 18.1179V26.8874C116.348 28.6107 115.012 29.6302 112.848 29.6302H96.0638C92.9065 29.6302 91.7145 27.7822 91.7145 25.4733V23.4951C91.7145 23.0721 92.0793 22.1325 95.1811 22.1325C98.2819 22.1325 98.4286 22.5528 98.5993 22.8931C98.7678 23.2307 99.0307 23.4951 99.3518 23.4951C99.6745 23.4951 106.462 23.4978 108.647 23.4991C108.797 23.4991 108.937 23.4395 109.044 23.3351C109.148 23.2307 109.206 23.0884 109.206 22.9406C109.206 22.4741 109.206 21.8139 109.206 21.3475Z" fill="#FFFBF9"/>
<path fill-rule="evenodd" clip-rule="evenodd" d="M12.0508 32.2664C12.0826 32.2194 12.0859 32.1588 12.0594 32.1083C12.0328 32.0585 11.9807 32.0274 11.924 32.0274C10.7223 32.0274 6.04061 32.0274 2.95114 32.0274C2.20457 32.0274 1.48868 31.7308 0.961102 31.2024C0.433452 30.674 0.137291 29.958 0.137941 29.2116C0.141117 25.3232 0.146747 18.5201 0.148696 16.1504C0.149129 15.5982 0.293926 15.0561 0.568649 14.5768C1.55956 12.8502 4.05986 8.4926 5.36187 6.22322C5.86701 5.34263 6.80439 4.7998 7.81938 4.7998H36.9049C37.517 4.7998 38.0808 5.13258 38.3775 5.66743C38.674 6.20306 38.6567 6.85698 38.3321 7.37596C37.2525 9.10183 35.9051 11.2564 35.2043 12.3767C35.109 12.529 35.1039 12.721 35.191 12.8784C35.278 13.0358 35.4436 13.1332 35.6233 13.1332C37.1769 13.1332 40.4304 13.1332 42.7098 13.1332C44.0792 13.1332 45.1891 14.2433 45.1891 15.6126V28.1433C45.1891 29.5436 44.8343 30.9216 44.1577 32.1473C43.3054 33.692 41.9223 35.8805 41.05 37.4613C40.3673 38.6985 39.0661 39.4665 37.6532 39.4665H10.3557C9.7301 39.4665 9.15564 39.1207 8.86268 38.5678C8.56967 38.0156 8.60604 37.3458 8.95714 36.8282C10.1472 35.0735 11.5759 32.9665 12.0508 32.2664Z" fill="#E27152"/>
<path fill-rule="evenodd" clip-rule="evenodd" d="M16.2578 30.9521C15.6869 30.9521 15.1518 31.23 14.8229 31.6963C13.9157 32.9833 12.0615 35.6136 11.1283 36.9374C11.0193 37.0926 11.0056 37.2947 11.0927 37.4629C11.1798 37.6311 11.3532 37.7365 11.5424 37.7365C15.7211 37.7365 31.9323 37.7365 37.0221 37.7365C37.9603 37.7365 38.8269 37.2348 39.2947 36.4213C39.9608 35.2628 41.105 33.5788 41.7908 32.3856C41.9611 32.0897 41.9606 31.7252 41.7896 31.43C41.6186 31.134 41.3029 30.9521 40.9614 30.9521C35.8156 30.9521 20.1982 30.9521 16.2578 30.9521Z" fill="#FFFBF9"/>
<path fill-rule="evenodd" clip-rule="evenodd" d="M9.0735 23.6554C8.11388 23.6583 7.20865 24.1015 6.61756 24.8579C5.77388 25.9371 4.5276 27.5315 3.60209 28.7153C3.37155 29.0098 3.32939 29.4104 3.49346 29.7468C3.65746 30.0839 3.99909 30.2968 4.37342 30.2968H13.1805C13.4915 29.6407 14.1529 29.2221 14.8793 29.2221C18.3624 29.2221 28.5066 29.2221 31.9004 29.2221C32.5967 29.2221 33.2429 28.8597 33.6065 28.2656C34.2524 27.2111 35.2845 25.5256 35.9222 24.484C36.0364 24.2971 36.0408 24.0632 35.9335 23.8727C35.8261 23.6814 35.624 23.5637 35.405 23.5645C30.9768 23.5796 14.2292 23.6374 9.0735 23.6554Z" fill="#FFFBF9"/>
<path fill-rule="evenodd" clip-rule="evenodd" d="M36.1255 27.8153C35.9489 28.099 35.94 28.4563 36.1024 28.7486C36.2647 29.0409 36.5727 29.2221 36.907 29.2221H41.846C42.2271 29.2221 42.5927 29.0705 42.8621 28.8013C43.1317 28.5313 43.283 28.1661 43.283 27.785C43.283 25.024 43.283 19.0098 43.283 16.272C43.283 15.4939 42.6525 14.8638 41.8747 14.8638C37.365 14.8638 23.3147 14.8638 18.8344 14.8638C17.9703 14.8638 17.166 15.3055 16.7025 16.0345C15.8851 17.3208 14.9336 19.3708 14.1288 20.6368C13.9858 20.8613 13.9767 21.1464 14.105 21.3803C14.2333 21.6142 14.4787 21.7593 14.7452 21.7593H36.6228C37.2827 21.7593 37.8909 22.1173 38.2114 22.694C38.5319 23.2708 38.5145 23.976 38.1657 24.5368C37.471 25.6535 36.7 26.8921 36.1255 27.8153Z" fill="#FFFBF9"/>
<path fill-rule="evenodd" clip-rule="evenodd" d="M32.1023 13.1333C32.2915 13.1333 32.4679 13.0373 32.5713 12.8792C33.1175 12.0426 34.8808 9.34232 35.8442 7.86691C35.972 7.67128 35.9823 7.42083 35.8711 7.21582C35.7598 7.01011 35.5449 6.88232 35.3112 6.88232C31.0655 6.88232 16.4612 6.88232 10.3859 6.88232C9.6739 6.88232 8.99112 7.16456 8.48766 7.6684C7.9843 8.1715 7.70142 8.85432 7.70142 9.5668C7.70142 12.239 7.70142 16.3259 7.70142 19.0601C7.70142 19.8079 8.0076 20.5225 8.54867 21.0386C9.08974 21.5547 9.81843 21.8261 10.5652 21.7908C10.5654 21.7908 10.917 21.7908 10.917 21.7908C10.9263 21.715 13.7582 16.8261 15.3212 14.4289C15.8486 13.6205 16.7487 13.1333 17.7142 13.1333C21.3645 13.1333 30.3397 13.1333 32.1023 13.1333Z" fill="#FFFBF9"/>
</g>
<defs>
<clipPath id="clip0_1_157">
<rect width="137" height="40" fill="white"/>
</clipPath>
</defs>
</svg>
